<svg width="40" height="40" viewBox="0 0 40 40" fill="none" xmlns="http://www.w3.org/2000/svg">
<path d="M33.7728 29.9997C41.7592 29.9997 42.1845 22.3665 34.3485 20.3833C35.2502 19.0498 35.0246 19.2668 35.0246 8.33357C35.0247 7.23922 34.701 6.15557 34.072 5.1445C33.443 4.13342 32.521 3.21473 31.3586 2.44088C30.1963 1.66703 28.8163 1.05317 27.2976 0.634367C25.7788 0.215558 24.1511 -2.61006e-09 22.5072 0L17.4999 0C14.1801 0 10.9962 0.877938 8.64874 2.44068C6.30127 4.00342 4.98248 6.12295 4.98248 8.333C4.98248 19.333 4.75684 19.0498 5.65853 20.3827C-2.12735 22.3499 -1.82476 29.9997 6.2343 29.9997H17.4999V33.3331H9.98978C8.99943 33.3331 8.03132 33.5286 7.20787 33.8949C6.38442 34.2612 5.74263 34.7818 5.36363 35.3909C4.98464 36 4.88548 36.6703 5.07869 37.3169C5.2719 37.9635 5.7488 38.5575 6.44908 39.0237C7.14937 39.4898 8.04158 39.8073 9.01291 39.9359C9.98423 40.0646 10.991 39.9986 11.906 39.7463C12.821 39.494 13.603 39.0667 14.1532 38.5185C14.7034 37.9703 14.9971 37.3259 14.9971 36.6666H25.0108C25.0108 37.3259 25.3045 37.9703 25.8547 38.5185C26.4049 39.0667 27.187 39.494 28.1019 39.7463C29.0169 39.9986 30.0237 40.0646 30.995 39.9359C31.9663 39.8073 32.8586 39.4898 33.5588 39.0237C34.2591 38.5575 34.736 37.9635 34.9292 37.3169C35.1224 36.6703 35.0233 36 34.6443 35.3909C34.2653 34.7818 33.6235 34.2612 32.8001 33.8949C31.9766 33.5286 31.0085 33.3331 30.0181 33.3331H22.5072V29.9997H33.7728ZM9.98978 8.333C9.98978 7.00688 10.7811 5.73507 12.1897 4.79736C13.5983 3.85965 15.5087 3.33285 17.5007 3.33285H22.508C24.5001 3.33285 26.4105 3.85965 27.8191 4.79736C29.2277 5.73507 30.019 7.00688 30.019 8.333V18.3333C30.019 18.7759 29.7549 19.2005 29.2847 19.5135C28.8145 19.8265 28.1768 20.0023 27.5119 20.0023H12.4934C11.8285 20.0023 11.1908 19.8265 10.7206 19.5135C10.2505 19.2005 9.98632 18.7759 9.98632 18.3333L9.98978 8.333ZM4.98248 25.8329C4.98248 25.1699 5.37814 24.534 6.08243 24.0651C6.78672 23.5963 7.74194 23.3329 8.73796 23.3329H31.27C35.0004 23.3329 36.2773 26.6663 33.7771 26.6663C4.98248 26.6663 4.98248 27.0162 4.98248 25.8329Z" fill="#171718" fill-opacity="0.6"/>
</svg>
