<svg width="40" height="40" viewBox="0 0 40 40" fill="none" xmlns="http://www.w3.org/2000/svg">
<g clip-path="url(#clip0_86_224)">
<path d="M20 7.75325e-09C20.4354 -3.69281e-05 20.8584 0.131897 21.2024 0.375L39.2416 13.125C39.4777 13.2919 39.6688 13.5058 39.8002 13.7503C39.9317 13.9948 40 14.2635 40 14.5357V34.5714C39.9971 36.0117 39.367 37.3922 38.2479 38.4099C37.1288 39.4276 35.6121 39.9994 34.0306 40H5.96941C4.38791 39.9994 2.87123 39.4276 1.75213 38.4099C0.633035 37.3922 0.00290782 36.0117 5.12637e-09 34.5714V14.5357C-2.16089e-05 14.2635 0.0683043 13.9948 0.199755 13.7503C0.331205 13.5058 0.5223 13.2919 0.758431 13.125L18.7976 0.375C19.1416 0.131897 19.5646 -3.69281e-05 20 7.75325e-09ZM36.0784 15.41L20 4.04643L3.92157 15.41V34.5714C3.92344 35.0648 4.14007 35.5374 4.52395 35.8855C4.90784 36.2337 5.42766 36.429 5.96941 36.4286H34.0306C34.5723 36.429 35.0922 36.2337 35.476 35.8855C35.8599 35.5374 36.0766 35.0648 36.0784 34.5714V15.41Z" fill="#FE5E00"/>
<path d="M26.0713 39.9978C25.8138 39.9978 25.5588 39.9516 25.3209 39.8619C25.083 39.7721 24.8669 39.6406 24.6848 39.4748C24.5027 39.309 24.3583 39.1121 24.2598 38.8955C24.1612 38.6788 24.1105 38.4466 24.1105 38.2121V21.5692H15.8893V38.2121C15.8893 38.6857 15.6828 39.1399 15.315 39.4748C14.9473 39.8097 14.4486 39.9978 13.9286 39.9978C13.4085 39.9978 12.9098 39.8097 12.5421 39.4748C12.1744 39.1399 11.9678 38.6857 11.9678 38.2121V19.7835C11.9678 19.3099 12.1744 18.8557 12.5421 18.5208C12.9098 18.1859 13.4085 17.9978 13.9286 17.9978H26.0713C26.5913 17.9978 27.0901 18.1859 27.4578 18.5208C27.8255 18.8557 28.0321 19.3099 28.0321 19.7835V38.2121C28.0321 38.4466 27.9814 38.6788 27.8828 38.8955C27.7843 39.1121 27.6399 39.309 27.4578 39.4748C27.2757 39.6406 27.0596 39.7721 26.8217 39.8619C26.5838 39.9516 26.3288 39.9978 26.0713 39.9978Z" fill="#FE5E00"/>
</g>
<defs>
<clipPath id="clip0_86_224">
<rect width="40" height="40" fill="white"/>
</clipPath>
</defs>
</svg>
