<svg width="32" height="32" viewBox="0 0 32 32" fill="none" xmlns="http://www.w3.org/2000/svg">
<path d="M16 6.2026e-09C16.3483 -2.95425e-05 16.6867 0.105517 16.9619 0.3L31.3933 10.5C31.5822 10.6335 31.735 10.8047 31.8402 11.0003C31.9454 11.1959 32 11.4108 32 11.6286V27.6571C31.9977 28.8094 31.4936 29.9137 30.5983 30.7279C29.703 31.5421 28.4897 31.9995 27.2245 32H4.77553C3.51033 31.9995 2.29699 31.5421 1.40171 30.7279C0.506428 29.9137 0.00232626 28.8094 4.10109e-09 27.6571V11.6286C-1.72871e-05 11.4108 0.0546435 11.1959 0.159804 11.0003C0.264964 10.8047 0.41784 10.6335 0.606745 10.5L15.0381 0.3C15.3133 0.105517 15.6517 -2.95425e-05 16 6.2026e-09ZM28.8627 12.328L16 3.23714L3.13725 12.328V27.6571C3.13875 28.0519 3.31205 28.4299 3.61916 28.7084C3.92627 28.9869 4.34212 29.1432 4.77553 29.1429H27.2245C27.6579 29.1432 28.0737 28.9869 28.3808 28.7084C28.6879 28.4299 28.8613 28.0519 28.8627 27.6571V12.328Z" fill="#FE5E00"/>
<path d="M22.0714 31.9978C21.8139 31.9978 21.559 31.9516 21.3211 31.8619C21.0832 31.7721 20.867 31.6406 20.6849 31.4748C20.5029 31.309 20.3584 31.1121 20.2599 30.8955C20.1614 30.6788 20.1106 30.4466 20.1106 30.2121V13.5692H11.8895V30.2121C11.8895 30.6857 11.6829 31.1399 11.3152 31.4748C10.9474 31.8097 10.4487 31.9978 9.92868 31.9978C9.40865 31.9978 8.90991 31.8097 8.5422 31.4748C8.17448 31.1399 7.9679 30.6857 7.9679 30.2121V11.7835C7.9679 11.3099 8.17448 10.8557 8.5422 10.5208C8.90991 10.1859 9.40865 9.9978 9.92868 9.9978H22.0714C22.5915 9.9978 23.0902 10.1859 23.4579 10.5208C23.8256 10.8557 24.0322 11.3099 24.0322 11.7835V30.2121C24.0322 30.4466 23.9815 30.6788 23.883 30.8955C23.7844 31.1121 23.64 31.309 23.4579 31.4748C23.2758 31.6406 23.0597 31.7721 22.8218 31.8619C22.5839 31.9516 22.3289 31.9978 22.0714 31.9978Z" fill="#FE5E00"/>
</svg>
