<svg width="40" height="40" viewBox="0 0 40 40" fill="none" xmlns="http://www.w3.org/2000/svg">
<path d="M1.09727 14.697L9.15689 11.9239V7.85983C9.1569 7.68281 9.1996 7.50874 9.28093 7.35419C9.36226 7.19964 9.47951 7.06976 9.62151 6.97691L19.469 0.528792C19.6243 0.422655 19.8048 0.365371 19.9895 0.363569C20.1742 0.361767 20.3556 0.415521 20.5127 0.51861L30.3027 6.9289C30.4653 7.01558 30.6021 7.14854 30.6977 7.31292C30.7933 7.47731 30.844 7.66666 30.8441 7.85983V11.9239L38.9037 14.697C39.1184 14.7516 39.3095 14.8813 39.4462 15.0652C39.583 15.2492 39.6574 15.4766 39.6575 15.7109V38.5942C39.6573 38.8705 39.5538 39.1355 39.3697 39.3309C39.1855 39.5263 38.9359 39.6362 38.6755 39.6364H1.32478C1.06439 39.6362 0.814722 39.5263 0.630598 39.3309C0.446475 39.1355 0.342955 38.8705 0.342773 38.5942V15.7109C0.34286 15.4766 0.417275 15.2492 0.554027 15.0652C0.690778 14.8813 0.881898 14.7516 1.09659 14.697H1.09727ZM16.2208 19.1189C15.9603 19.1189 15.7106 19.0091 15.5264 18.8137C15.3422 18.6182 15.2388 18.3531 15.2388 18.0767C15.2388 17.8003 15.3422 17.5352 15.5264 17.3398C15.7106 17.1443 15.9603 17.0345 16.2208 17.0345H23.7788C24.0392 17.0345 24.289 17.1443 24.4732 17.3398C24.6573 17.5352 24.7608 17.8003 24.7608 18.0767C24.7608 18.3531 24.6573 18.6182 24.4732 18.8137C24.289 19.0091 24.0392 19.1189 23.7788 19.1189H16.2208ZM16.2208 22.5714C15.9603 22.5714 15.7106 22.4616 15.5264 22.2661C15.3422 22.0707 15.2388 21.8056 15.2388 21.5292C15.2388 21.2528 15.3422 20.9877 15.5264 20.7922C15.7106 20.5968 15.9603 20.487 16.2208 20.487H23.7788C24.0392 20.487 24.289 20.5968 24.4732 20.7922C24.6573 20.9877 24.7608 21.2528 24.7608 21.5292C24.7608 21.8056 24.6573 22.0707 24.4732 22.2661C24.289 22.4616 24.0392 22.5714 23.7788 22.5714H16.2208ZM16.5353 25.7489H23.4642C23.7242 25.7494 23.9734 25.8594 24.1571 26.0546C24.3408 26.2499 24.444 26.5144 24.4442 26.7903V37.5542H28.8807V8.43729L19.9994 2.61901L11.1182 8.43729V37.5527H15.5547V26.7889C15.555 26.652 15.5806 26.5166 15.6302 26.3902C15.6798 26.2639 15.7524 26.1492 15.8438 26.0526C15.9352 25.956 16.0436 25.8795 16.1628 25.8274C16.2821 25.7753 16.4098 25.7486 16.5388 25.7489H16.5353ZM22.4781 27.8333H17.5228V37.5527H22.4836L22.4781 27.8333ZM37.6914 16.4658L30.8386 14.1087V37.5527H37.6914V16.4658ZM9.15689 14.1087L2.30406 16.4658V37.5527H9.15689V14.1087Z" fill="#171718" fill-opacity="0.6"/>
<path d="M20.0021 2.2671e-05C20.2471 6.00845e-05 20.4872 0.072595 20.6956 0.209481L30.4732 6.60959C30.6895 6.72739 30.8708 6.90638 30.9972 7.12676C31.1236 7.34715 31.1901 7.60035 31.1893 7.85834V11.6577L39.0015 14.3486C39.2874 14.4248 39.541 14.6003 39.7219 14.8472C39.9029 15.094 40.0008 15.3981 40 15.7108V38.5942C39.9996 38.9669 39.86 39.3242 39.6116 39.5878C39.3633 39.8514 39.0266 39.9996 38.6753 40H1.32466C0.973449 39.9996 0.636729 39.8514 0.388387 39.5878C0.140045 39.3242 0.000367241 38.9669 4.4219e-06 38.5942V15.7108C-0.000760664 15.397 0.0977769 15.0921 0.279819 14.8448C0.461862 14.5975 0.716865 14.4223 1.00394 14.3472L8.81618 11.6562V7.85616C8.81556 7.61707 8.87291 7.38184 8.98272 7.17307C9.09254 6.96431 9.25112 6.78905 9.44321 6.66414L19.288 0.217481C19.5015 0.0739702 19.7493 -0.00150265 20.0021 2.2671e-05ZM38.6774 39.2734C38.8469 39.2733 39.0094 39.2017 39.1293 39.0745C39.2492 38.9473 39.3166 38.7748 39.3168 38.5949V15.7108C39.3172 15.5581 39.2689 15.4096 39.1796 15.2897C39.0904 15.1698 38.9656 15.0855 38.8254 15.0505L38.7987 15.0425L30.5033 12.1886V7.8598C30.5036 7.73383 30.4708 7.61028 30.4084 7.5031C30.346 7.39592 30.2567 7.30938 30.1504 7.25324L30.1244 7.23797L20.3324 0.827673C20.2303 0.760517 20.1123 0.725484 19.9923 0.726642C19.8722 0.727801 19.7548 0.765105 19.6539 0.834219H19.6484L9.80093 7.28233C9.70855 7.34254 9.6323 7.42694 9.5795 7.52742C9.52669 7.62791 9.49911 7.74111 9.4994 7.85616L9.49598 12.1842L1.17664 15.0512C1.03649 15.0862 0.911646 15.1705 0.822424 15.2904C0.733203 15.4103 0.684867 15.5588 0.685288 15.7116V38.5942C0.685469 38.7741 0.75289 38.9465 0.872755 39.0738C0.992621 39.201 1.15514 39.2725 1.32466 39.2727L38.6774 39.2734ZM20.0014 2.19497L29.2253 8.23144V37.9163H24.1014V26.7889C24.1012 26.609 24.0338 26.4365 23.914 26.3093C23.7941 26.182 23.6316 26.1105 23.4621 26.1103H16.5386C16.3691 26.1105 16.2066 26.182 16.0867 26.3093C15.9669 26.4365 15.8994 26.609 15.8993 26.7889V37.9163H10.7775V8.23435L20.0014 2.19497ZM28.5393 8.63872L20.0007 3.04808L11.4627 8.63872V37.189H15.214V26.7889C15.2143 26.4161 15.354 26.0588 15.6024 25.7952C15.8507 25.5316 16.1874 25.3834 16.5386 25.383H23.4641C23.8152 25.384 24.1516 25.5327 24.3995 25.7965C24.6475 26.0603 24.7867 26.4177 24.7867 26.7903V37.1905H28.5379L28.5393 8.63872ZM30.5033 13.6068L38.0415 16.1996V37.9163H30.5033V13.6068ZM37.3562 16.7283L31.1886 14.6076V37.189H37.3562V16.7283ZM9.4994 13.6083V37.9163H1.96677V16.2025L9.4994 13.6083ZM8.81412 37.1883V14.609L2.64657 16.7298V37.1883H8.81412ZM16.2207 16.6709H23.7787C24.13 16.6709 24.4669 16.819 24.7153 17.0826C24.9637 17.3463 25.1033 17.7038 25.1033 18.0767C25.1033 18.4496 24.9637 18.8071 24.7153 19.0708C24.4669 19.3344 24.13 19.4825 23.7787 19.4825H16.2207C15.8693 19.4825 15.5324 19.3344 15.284 19.0708C15.0356 18.8071 14.896 18.4496 14.896 18.0767C14.896 17.7038 15.0356 17.3463 15.284 17.0826C15.5324 16.819 15.8693 16.6709 16.2207 16.6709ZM23.7787 18.7553C23.9482 18.7553 24.1109 18.6838 24.2308 18.5565C24.3507 18.4293 24.418 18.2567 24.418 18.0767C24.418 17.8967 24.3507 17.7241 24.2308 17.5969C24.1109 17.4696 23.9482 17.3981 23.7787 17.3981H16.2207C16.0511 17.3981 15.8885 17.4696 15.7686 17.5969C15.6487 17.7241 15.5813 17.8967 15.5813 18.0767C15.5813 18.2567 15.6487 18.4293 15.7686 18.5565C15.8885 18.6838 16.0511 18.7553 16.2207 18.7553H23.7787ZM16.2207 20.1233H23.7787C24.13 20.1233 24.4669 20.2714 24.7153 20.535C24.9637 20.7987 25.1033 21.1563 25.1033 21.5291C25.1033 21.902 24.9637 22.2596 24.7153 22.5232C24.4669 22.7869 24.13 22.935 23.7787 22.935H16.2207C15.8693 22.935 15.5324 22.7869 15.284 22.5232C15.0356 22.2596 14.896 21.902 14.896 21.5291C14.896 21.1563 15.0356 20.7987 15.284 20.535C15.5324 20.2714 15.8693 20.1233 16.2207 20.1233ZM23.7752 22.2077C23.9448 22.2077 24.1074 22.1362 24.2273 22.0089C24.3472 21.8817 24.4146 21.7091 24.4146 21.5291C24.4146 21.3492 24.3472 21.1766 24.2273 21.0493C24.1074 20.9221 23.9448 20.8506 23.7752 20.8506H16.2207C16.0511 20.8506 15.8885 20.9221 15.7686 21.0493C15.6487 21.1766 15.5813 21.3492 15.5813 21.5291C15.5813 21.7091 15.6487 21.8817 15.7686 22.0089C15.8885 22.1362 16.0511 22.2077 16.2207 22.2077H23.7752ZM17.1801 27.4696H22.8261V37.9163H17.1801V27.4696ZM22.1408 28.1969H17.8653V37.189H22.1408V28.1969Z" fill="#171718" fill-opacity="0.6"/>
</svg>
