<svg width="40" height="40" viewBox="0 0 40 40" fill="none" xmlns="http://www.w3.org/2000/svg">
<path d="M34.6909 18.6671C34.2398 18.6751 33.7912 18.7379 33.3552 18.8541V9.22703C33.3534 6.77812 32.3788 4.43025 30.6458 2.69986C28.9129 0.969481 26.5636 -0.00168028 24.1146 4.55895e-06H15.8873C14.6744 -0.00120055 13.4732 0.236523 12.3523 0.699598C11.2313 1.16267 10.2126 1.84203 9.35425 2.69886C8.49589 3.5557 7.81473 4.57323 7.34968 5.69335C6.88462 6.81346 6.64478 8.01421 6.64386 9.22703V18.8534C6.20767 18.7381 5.75925 18.6753 5.30815 18.6664C4.13911 18.6717 3.00421 19.061 2.07811 19.7745C1.152 20.4879 0.48602 21.4859 0.182659 22.6149C-0.120701 23.7439 -0.0446278 24.9412 0.399171 26.0228C0.842971 27.1043 1.6299 28.01 2.63885 28.6005V38.6664C2.63894 38.8417 2.67357 39.0153 2.74075 39.1771C2.80794 39.339 2.90636 39.4861 3.0304 39.61C3.15444 39.7338 3.30167 39.832 3.46367 39.8989C3.62567 39.9658 3.79927 40.0002 3.97456 40H36.0267C36.2019 40.0002 36.3755 39.9658 36.5375 39.8989C36.6995 39.832 36.8468 39.7338 36.9708 39.61C37.0948 39.4861 37.1933 39.339 37.2605 39.1771C37.3276 39.0153 37.3623 38.8417 37.3624 38.6664V28.6005C38.3711 28.0098 39.1577 27.104 39.6012 26.0224C40.0448 24.9409 40.1206 23.7436 39.8171 22.6148C39.5136 21.486 38.8476 20.4881 37.9215 19.7749C36.9954 19.0616 35.8606 18.6724 34.6916 18.6671H34.6909ZM9.31669 9.22703C9.32117 7.48659 10.0151 5.81884 11.2466 4.58895C12.4781 3.35906 14.1468 2.66726 15.8873 2.66502H24.1146C25.8551 2.66726 27.5238 3.35906 28.7553 4.58895C29.9868 5.81884 30.6807 7.48659 30.6852 9.22703V20.4671C30.6182 20.5468 30.5787 20.6273 30.5251 20.6936C30.4332 20.7957 30.3525 20.9073 30.2844 21.0266C30.1529 21.2005 30.041 21.3884 29.9507 21.5869C29.8849 21.7028 29.8269 21.823 29.7771 21.9467C29.6874 22.164 29.6116 22.3867 29.5499 22.6135C29.5618 22.7323 29.5285 22.8512 29.4568 22.9466C29.3636 23.0665 29.4568 23.2796 29.4568 23.4532C28.6204 22.9412 27.6594 22.6691 26.6788 22.6664H13.3231C12.3787 22.6884 11.457 22.9601 10.6517 23.4539V22.9473C10.6459 22.8868 10.6243 22.8289 10.5892 22.7794C10.554 22.7299 10.5065 22.6904 10.4513 22.665C10.3875 22.4433 10.3117 22.2251 10.2241 22.0116C10.2241 21.8783 10.1041 21.7583 10.0505 21.6384C9.99689 21.5184 9.85013 21.2785 9.74358 21.105L9.47616 20.7451L9.31598 20.4629L9.31669 9.22703ZM29.3488 28.0007H10.6517C10.6515 27.6499 10.7205 27.3025 10.8547 26.9784C10.9889 26.6543 11.1857 26.3598 11.4338 26.1118C11.6819 25.8639 11.9765 25.6672 12.3007 25.5332C12.6249 25.3992 12.9723 25.3304 13.3231 25.3307H26.6781C27.0288 25.3305 27.3762 25.3993 27.7003 25.5334C28.0244 25.6675 28.3189 25.8641 28.5669 26.1121C28.815 26.3601 29.0117 26.6545 29.1459 26.9786C29.28 27.3026 29.349 27.65 29.3488 28.0007ZM4.42826 26.507C3.96993 26.3431 3.56539 26.0566 3.25875 25.6786C2.95211 25.3006 2.75516 24.8457 2.68936 24.3634C2.62356 23.8812 2.69144 23.3901 2.88561 22.9438C3.07978 22.4975 3.39277 22.113 3.79046 21.8324C4.18815 21.5518 4.65525 21.3857 5.14084 21.3524C5.62643 21.319 6.11186 21.4197 6.54417 21.6433C6.97649 21.8669 7.33911 22.2049 7.59247 22.6205C7.84584 23.0361 7.98023 23.5133 7.98098 24V37.3357H5.31027V27.7608C5.31007 27.4865 5.22527 27.2189 5.06743 26.9945C4.90959 26.7701 4.68639 26.5999 4.42826 26.507ZM10.6517 30.67H29.3502V37.3371H10.6517V30.67ZM35.5722 26.507C35.3144 26.5999 35.0914 26.7701 34.9337 26.9944C34.776 27.2186 34.6912 27.486 34.6909 27.7601V37.3343H32.0174V23.9986C32.0185 23.5123 32.1531 23.0356 32.4065 22.6206C32.6599 22.2055 33.0223 21.8679 33.4543 21.6447C33.8864 21.4214 34.3714 21.321 34.8565 21.3544C35.3417 21.3878 35.8084 21.5538 36.2057 21.8342C36.603 22.1145 36.9158 22.4986 37.1099 22.9445C37.3039 23.3904 37.3719 23.881 37.3064 24.3628C37.2408 24.8447 37.0442 25.2993 36.7381 25.6771C36.4319 26.055 36.0279 26.3415 35.5701 26.5056L35.5722 26.507Z" fill="#171718" fill-opacity="0.6"/>
</svg>
