<svg width="40" height="40" viewBox="0 0 40 40" fill="none" xmlns="http://www.w3.org/2000/svg">
<path d="M38.6665 0H1.33351C0.979841 0 0.640658 0.191583 0.390576 0.532602C0.140495 0.873622 2.15269e-07 1.33614 2.15269e-07 1.81842V7.27263C-9.93204e-05 7.51152 0.0343195 7.74809 0.10129 7.96883C0.168261 8.18957 0.266471 8.39015 0.390308 8.55912C0.514146 8.72808 0.661185 8.86212 0.823023 8.95357C0.984861 9.04501 1.15833 9.09208 1.33351 9.09208H6.66755V12.7289C6.66755 13.2112 6.80804 13.6737 7.05813 14.0147C7.30821 14.3558 7.64739 14.5473 8.00106 14.5473H18.6669V29.4181L13.0669 30.909C12.7611 30.994 12.4869 31.2225 12.292 31.5547C12.0971 31.887 11.9938 32.302 12.0001 32.7274V38.1816C12.0001 38.6639 12.1406 39.1264 12.3907 39.4674C12.6407 39.8084 12.9799 40 13.3336 40H26.6702C27.0239 40 27.3631 39.8084 27.6131 39.4674C27.8632 39.1264 28.0037 38.6639 28.0037 38.1816V32.7274C28.01 32.302 27.9067 31.887 27.7118 31.5547C27.5168 31.2225 27.2426 30.994 26.9369 30.909L21.3369 29.4181V14.5453H31.9997C32.3534 14.5453 32.6926 14.3537 32.9426 14.0127C33.1927 13.6716 33.3332 13.2091 33.3332 12.7269V9.09208H38.6665C39.0202 9.09208 39.3593 8.9005 39.6094 8.55948C39.8595 8.21846 40 7.75594 40 7.27367V1.81842C40 1.33614 39.8595 0.873622 39.6094 0.532602C39.3593 0.191583 39.0202 0 38.6665 0ZM25.3314 36.3683H14.6663V34.2183L20.0027 32.7635L25.3359 34.2183L25.3314 36.3683ZM30.6647 10.9136H9.33306V9.09208H30.6662L30.6647 10.9136ZM37.3322 5.45938H2.66702V3.63683H37.333L37.3322 5.45938Z" fill="#171718" fill-opacity="0.6"/>
</svg>
