<svg width="40" height="40" viewBox="0 0 40 40" fill="none" xmlns="http://www.w3.org/2000/svg">
<path d="M39.2858 22.8571H25.0001V20.7143C25.0001 20.5249 24.9248 20.3431 24.7909 20.2092C24.6569 20.0753 24.4752 20 24.2858 20H22.1429V18.5714H32.8572C33.0466 18.5714 33.2284 18.4962 33.3623 18.3622C33.4962 18.2283 33.5715 18.0466 33.5715 17.8571V0.714286C33.5715 0.524874 33.4963 0.34311 33.3623 0.209184C33.2284 0.0752572 33.0466 0 32.8572 0H7.14287C6.74842 0 6.42859 0.319837 6.42859 0.714286V17.8571C6.42859 18.0466 6.50384 18.2283 6.63777 18.3622C6.7717 18.4962 6.95346 18.5714 7.14287 18.5714H17.8572V20H15.7143C15.3199 20 15 20.3198 15 20.7143V22.8571H0.714287C0.319837 22.8571 0 23.177 0 23.5714V26.4286C0 26.618 0.0752557 26.7998 0.209184 26.9337C0.343113 27.0676 0.524875 27.1429 0.714287 27.1429H1.42857V36.4286C1.42857 36.618 1.50383 36.7998 1.63776 36.9337C1.77169 37.0676 1.95345 37.1429 2.14286 37.1429H3.01437L3.59282 39.4589C3.67222 39.7768 3.95794 40 4.28574 40H7.14289C7.47069 40 7.75641 39.7768 7.83581 39.4589L8.41426 37.1429H31.5857L32.1648 39.4589C32.2439 39.7765 32.5296 39.9997 32.8571 40H35.7143C36.0421 40 36.3278 39.7768 36.4072 39.4589L36.9856 37.1429H37.8571C38.0466 37.1429 38.2283 37.0676 38.3622 36.9337C38.4962 36.7998 38.5714 36.618 38.5714 36.4286V27.1429H39.2857C39.4751 27.1429 39.6569 27.0676 39.7908 26.9337C39.9247 26.7998 40 26.618 40 26.4286V23.5714C40 23.382 39.9247 23.2003 39.7908 23.0663C39.6569 22.9324 39.4751 22.8571 39.2857 22.8571H39.2858ZM7.85716 1.42857H32.1429V17.1429H7.85716V1.42857ZM19.2858 18.5714H20.7143V20H19.2858V18.5714ZM16.4286 21.4286H23.5715V22.8571H16.4286V21.4286ZM2.85715 27.1429H19.2858V35.7143H2.85715V27.1429ZM6.58483 38.5714H4.84377L4.48662 37.1429H6.94198L6.58483 38.5714ZM35.1563 38.5714H33.4153L33.0581 37.1429H35.5135L35.1563 38.5714ZM37.1429 35.7143H20.7143V27.1429H37.1429V35.7143ZM38.5715 25.7143H1.42857V24.2857H38.5715V25.7143ZM16.4286 31.4286C16.4286 31.1397 16.6027 30.8792 16.8696 30.7688C17.1365 30.6582 17.4436 30.7191 17.648 30.9235C17.8524 31.1279 17.9133 31.435 17.8027 31.7019C17.6923 31.9688 17.4318 32.1429 17.1429 32.1429C16.7484 32.1429 16.4286 31.823 16.4286 31.4286ZM22.1429 31.4286C22.1429 31.1397 22.317 30.8792 22.5839 30.7688C22.8508 30.6582 23.1579 30.7191 23.3623 30.9235C23.5667 31.1279 23.6276 31.435 23.517 31.7019C23.4066 31.9688 23.1461 32.1429 22.8572 32.1429C22.4627 32.1429 22.1429 31.823 22.1429 31.4286ZM30.7144 15V3.57143C30.7144 3.38202 30.6391 3.20025 30.5052 3.06633C30.3712 2.9324 30.1895 2.85714 30.0001 2.85714H10C9.60557 2.85714 9.28574 3.17698 9.28574 3.57143V15C9.28574 15.1894 9.36099 15.3712 9.49492 15.5051C9.62885 15.639 9.81061 15.7143 10 15.7143H30.0001C30.1895 15.7143 30.3712 15.639 30.5052 15.5051C30.6391 15.3712 30.7144 15.1894 30.7144 15ZM29.2858 14.2857H10.7143V4.28572H29.2858V14.2857Z" fill="#171718" fill-opacity="0.6"/>
</svg>
