<svg width="40" height="40" viewBox="0 0 40 40" fill="none" xmlns="http://www.w3.org/2000/svg">
<path d="M38.5714 10C39.3603 10 40 9.36097 40 8.57143C40 7.78189 39.3603 7.14286 38.5714 7.14286H35.7143V2.85714H38.5714C39.3603 2.85714 40 2.21811 40 1.42857C40 0.639029 39.3603 0 38.5714 0H1.42857C0.639665 0 0 0.639029 0 1.42857C0 2.21811 0.639665 2.85714 1.42857 2.85714H4.28571V7.14286H1.42857C0.639665 7.14286 0 7.78189 0 8.57143C0 9.36097 0.639665 10 1.42857 10H11.4286V14.2857H1.42857C0.639665 14.2857 0 14.9247 0 15.7143C0 16.5038 0.639665 17.1429 1.42857 17.1429H4.28571V21.4286H1.42857C0.639665 21.4286 0 22.0676 0 22.8571V38.5714C0 39.361 0.639665 40 1.42857 40H38.5714C39.3603 40 40 39.361 40 38.5714V23.8645C40 23.4879 39.8514 23.1266 39.5858 22.8588L38.9251 22.192C37.9729 21.2312 36.8859 20.4595 35.7143 19.8705V17.1429H38.5714C39.3603 17.1429 40 16.5038 40 15.7143C40 14.9247 39.3603 14.2857 38.5714 14.2857H28.5714V10H38.5714ZM32.8571 2.85714V7.14286H21.4286V2.85714H32.8571ZM7.14286 7.14286V2.85714H18.5714V7.14286H7.14286ZM7.14286 17.1429H18.5714V21.4286H7.14286V17.1429ZM5.97453 25.3796L4.45698 24.2859H11.4286V27.1102C9.50188 27.1102 7.57559 26.5334 5.97453 25.3797V25.3796ZM14.2855 24.2859H18.401L16.8831 25.3796C16.0846 25.9548 15.2051 26.386 14.2855 26.6745V24.2859ZM37.1427 24.4533V37.1431H2.85698V26.6549L4.30375 27.6986C8.4849 30.712 14.3723 30.712 18.5527 27.6986L24.805 23.1938C26.4057 22.0385 28.2906 21.4288 30.2556 21.4288C32.7633 21.4288 35.1216 22.4138 36.8956 24.2037L37.1427 24.4533ZM32.857 17.143V18.857C32.011 18.6736 31.1417 18.5716 30.2559 18.5716C27.6877 18.5716 25.2253 19.3681 23.1348 20.8748L22.366 21.4287H21.4285V17.143L32.857 17.143ZM25.7141 14.2859H14.2855V10.0001H25.7141V14.2859Z" fill="#171718" fill-opacity="0.6"/>
</svg>
