<svg width="40" height="40" viewBox="0 0 40 40" fill="none" xmlns="http://www.w3.org/2000/svg">
<g clip-path="url(#clip0_86_235)">
<path d="M38.1818 -0.000193508H1.81822C1.38082 -0.0355718 0.945395 0.0842449 0.605438 0.333527C0.265482 0.582809 0.0481099 0.941676 0 1.33307V34.6668C0.0481099 35.0582 0.265482 35.417 0.605438 35.6663C0.945395 35.9156 1.38082 36.0354 1.81822 36V38.6665C1.86633 39.0579 2.0837 39.4168 2.42366 39.6661C2.76361 39.9154 3.19904 40.0352 3.63644 39.9998H36.3644C36.8018 40.0352 37.2372 39.9154 37.5772 39.6661C37.9171 39.4168 38.1345 39.0579 38.1826 38.6665V36C38.62 36.0354 39.0554 35.9156 39.3954 35.6663C39.7353 35.417 39.9527 35.0582 40.0008 34.6668V1.33307C39.9527 0.941535 39.7352 0.582549 39.3951 0.333247C39.055 0.0839443 38.6193 -0.0357779 38.1818 -0.000193508V-0.000193508ZM36.3644 2.66632V33.3305H21.8178V2.66632H36.3644ZM3.63727 2.66632H18.1814V33.3305H3.63644L3.63727 2.66632ZM34.5453 37.3333H5.45466V36H34.5453V37.3333Z" fill="#171718" fill-opacity="0.6"/>
<path d="M35.7819 23.8748H26.6284V26.8591H35.7819V23.8748Z" fill="#171718" fill-opacity="0.6"/>
<path d="M35.7819 28.3513H26.6284V30.5896H35.7819V28.3513Z" fill="#171718" fill-opacity="0.6"/>
<path d="M13.3142 23.8748H4.16064V26.8591H13.3142V23.8748Z" fill="#171718" fill-opacity="0.6"/>
<path d="M13.3142 28.3513H4.16064V30.5896H13.3142V28.3513Z" fill="#171718" fill-opacity="0.6"/>
<path d="M27.4606 10.4451H24.1321V17.1599H27.4606V10.4451Z" fill="#171718" fill-opacity="0.6"/>
<path d="M15.8106 10.4451H13.3142V17.1599H15.8106V10.4451Z" fill="#171718" fill-opacity="0.6"/>
</g>
<defs>
<clipPath id="clip0_86_235">
<rect width="40" height="40" fill="white"/>
</clipPath>
</defs>
</svg>
